<?xml version="1.0"?><svg width="640" height="480" xmlns="http://www.w3.org/2000/svg">
 <metadata id="metadata12390">image/svg+xmlOther map symbolsMohamed IbrahimPublic Domainclker.comother map symbols</metadata>
 <g>
  <path stroke-width="3" fill="#007fff" fill-rule="nonzero" stroke="#000000" id="path5300" d="m443.643982,247.102631l-4.034454,-59.999756c-0.724121,-8.689651 -8.017212,-15.413742 -16.913757,-15.413742l-165.051086,0c-8.896515,0 -16.189606,6.724091 -16.965454,15.413742l-3.93103,59.999756l206.895782,0zm34.758514,61.551514c0,-12.310333 -9.93103,-22.344788 -22.241302,-22.344788c-12.310303,0 -22.344757,10.034454 -22.344757,22.344788c0,12.310272 10.034454,22.241272 22.344757,22.241272c12.310272,0 22.241302,-9.931 22.241302,-22.241272m-65.068726,33.413666l0,-56.223938c0,-5.586212 -4.551697,-10.137909 -10.137909,-10.137909l-126.465027,0c-5.43103,0 -9.982727,4.551697 -9.982727,10.137909l0,56.223938l146.585663,0zm-189.154465,-11.172394c12.25856,0 22.241287,-9.931 22.241287,-22.241272c0,-12.310333 -9.982727,-22.344788 -22.241287,-22.344788c-12.310303,0 -22.29303,10.034454 -22.29303,22.344788c0,12.310272 9.982727,22.241272 22.29303,22.241272m198.516464,-174.982101c17.068909,0 31.137848,13.241333 32.534393,29.999893l4.137909,61.81012l41.120514,24.879211l-0.103394,104.430634l-18.362061,0l0.103485,34.137817c0,14.79306 -11.948212,26.58609 -26.689575,26.58609c-14.637878,0 -26.534363,-11.79303 -26.534363,-26.58609l0,-34.137817l-177.516602,0l0.103455,34.137817c0,14.79306 -11.948242,26.58609 -26.68956,26.58609c-14.637863,0 -26.534378,-11.79303 -26.534378,-26.58609l0,-34.137817l-18.310272,0l-0.103455,-104.430634l41.120544,-24.879211l4.137909,-61.81012c1.293091,-16.75856 15.362,-29.999893 32.534363,-29.999893l165.051086,0z"/>
  <path stroke-width="3" fill="#7fff00" fill-rule="nonzero" stroke="#000000" id="path5302" d="m471.005981,36.896515c16.241272,0 29.379211,13.137886 29.379211,29.275742l0,189.568283l-27.051636,-16.603394l-3.517273,-55.344635c-2.431,-23.844727 -22.65506,-42.517075 -47.120514,-42.517075l-165.051086,0c-24.568878,0 -44.637756,18.672348 -47.068787,42.517075l-3.568954,55.344635l-27.155075,16.603394l0.103455,-189.568283c0,-16.137856 13.137878,-29.275742 29.275742,-29.275742l261.774918,0z"/>
  <title>Layer 1</title>
 </g>
</svg>